<?xml version="1.0" standalone="no"?>
<!DOCTYPE svg PUBLIC "-//W3C//DTD SVG 20010904//EN"
 "http://www.w3.org/TR/2001/REC-SVG-20010904/DTD/svg10.dtd">
<svg version="1.0" xmlns="http://www.w3.org/2000/svg"
 width="5200.000000pt" height="3467.000000pt" viewBox="0 0 5200.000000 3467.000000"
 preserveAspectRatio="xMidYMid meet">

<g transform="translate(0.000000,3467.000000) scale(0.100000,-0.100000)"
fill="#000000" stroke="none">
<path d="M38374 27206 c-18 -13 -22 -29 -27 -128 -18 -328 -115 -524 -322
-653 -87 -54 -213 -98 -315 -111 -25 -3 -52 -7 -60 -10 -8 -3 -71 -7 -140 -11
-133 -6 -150 -12 -150 -59 0 -44 24 -54 127 -54 192 0 404 -47 533 -118 81
-44 185 -148 227 -227 61 -116 103 -314 103 -488 0 -71 10 -87 55 -87 47 0 55
15 55 104 0 156 43 339 107 459 36 68 163 195 233 235 127 71 343 122 525 122
50 0 97 4 105 9 8 6 14 25 14 46 0 21 -6 40 -14 46 -8 5 -51 9 -95 10 -44 0
-87 2 -95 3 -8 2 -50 7 -93 11 -197 18 -378 94 -489 206 -127 129 -197 337
-198 591 0 78 -2 88 -22 102 -28 20 -38 20 -64 2z"/>
<path d="M18945 26854 c-727 -99 -1334 -638 -1518 -1349 -32 -122 -57 -290
-57 -379 l0 -66 8635 0 8635 0 0 23 c0 135 -49 404 -101 556 -50 145 -161 356
-251 476 -147 197 -406 430 -571 512 -28 15 -57 32 -63 38 -10 9 -54 29 -169
75 -11 4 -36 15 -55 23 -79 35 -237 71 -420 97 -39 6 -2821 9 -7015 9 -5813
-1 -6966 -3 -7050 -15z m331 -555 c153 -28 266 -150 281 -301 16 -176 -102
-336 -271 -368 -320 -60 -531 312 -318 561 53 62 136 102 243 118 3 1 32 -4
65 -10z m1094 -15 c85 -27 187 -131 210 -213 17 -62 12 -175 -11 -235 -80
-215 -365 -282 -540 -128 -20 17 -51 60 -69 94 -29 54 -35 75 -38 150 -4 77
-2 92 22 145 62 134 203 221 336 207 25 -3 65 -12 90 -20z m1057 -9 c70 -32
137 -96 170 -164 24 -49 28 -68 28 -146 0 -76 -4 -99 -26 -146 -57 -122 -168
-193 -299 -193 -101 -1 -166 23 -234 84 -95 87 -134 216 -102 339 52 203 273
311 463 226z m7985 -3 c82 -40 149 -111 178 -190 18 -45 21 -72 18 -132 -8
-136 -78 -243 -196 -298 l-57 -27 -3230 0 -3230 0 -67 33 c-125 61 -188 165
-188 310 0 99 34 175 109 245 54 51 97 73 165 87 23 4 1479 7 3236 6 l3195 -1
67 -33z"/>
<path d="M15787 24578 c-30 -57 -89 -169 -131 -249 l-76 -146 197 -32 c109
-17 207 -34 219 -36 19 -4 18 2 -18 143 -21 81 -37 150 -35 154 1 4 258 -96
570 -222 312 -126 578 -232 590 -235 19 -6 -968 564 -1187 685 l-74 40 -55
-102z"/>
<path d="M36117 24654 c-4 -4 -7 -26 -7 -48 -1 -23 -7 -75 -14 -117 -41 -226
-178 -331 -463 -355 -77 -6 -83 -8 -83 -29 0 -21 6 -23 92 -30 113 -8 227 -37
284 -70 58 -34 120 -107 143 -169 18 -48 37 -157 43 -246 3 -30 7 -35 28 -35
24 0 25 3 32 83 24 286 160 413 471 438 81 6 87 8 87 29 0 20 -7 22 -117 33
-66 6 -146 21 -181 33 -162 55 -244 180 -260 396 -6 78 -9 88 -27 91 -12 2
-24 0 -28 -4z"/>
<path d="M26681 24009 c-2 -17 65 -327 103 -474 98 -376 188 -651 414 -1260
187 -505 194 -526 189 -532 -3 -2 -32 13 -64 34 -55 38 -238 143 -247 143 -2
0 -39 16 -83 36 -167 76 -242 103 -418 149 -184 49 -331 71 -554 86 -773 49
-1429 -145 -1981 -587 -118 -95 -329 -308 -434 -439 -91 -114 -251 -349 -304
-445 -81 -149 -104 -194 -152 -300 -266 -582 -418 -1219 -487 -2045 -21 -260
-25 -1137 -5 -1385 41 -515 91 -856 178 -1220 57 -238 46 -215 106 -228 29 -6
89 -16 133 -22 102 -15 152 -37 203 -91 44 -45 128 -201 118 -218 -4 -5 -69
-55 -146 -111 -77 -56 -138 -105 -135 -110 3 -5 0 -12 -6 -16 -8 -4 -9 -3 -5
4 10 16 0 15 -29 -4 -14 -9 -22 -21 -18 -27 3 -5 2 -7 -4 -4 -5 3 -31 -9 -57
-28 -47 -33 -47 -33 -25 -49 12 -8 27 -12 32 -9 6 3 7 1 3 -5 -7 -12 42 -54
55 -46 5 3 8 0 7 -8 -2 -7 3 -12 10 -10 8 1 11 -2 7 -7 -3 -6 4 -15 15 -21 24
-13 25 -27 5 -50 -14 -15 0 -32 147 -190 184 -195 221 -237 333 -382 95 -123
326 -357 445 -452 324 -257 684 -426 1075 -505 527 -105 1067 -88 1565 51 277
77 618 256 869 458 70 56 143 101 271 167 192 99 333 177 573 320 l157 94 -42
50 -42 50 40 32 c53 44 102 90 85 81 -9 -5 -12 -3 -7 5 4 6 12 9 17 5 10 -6
59 33 59 47 0 8 -194 149 -205 149 -3 0 -4 -4 -1 -8 3 -5 -1 -9 -9 -9 -10 0
-12 4 -5 13 8 8 -12 28 -76 73 -74 53 -88 60 -102 49 -15 -11 -15 -11 -5 3 11
13 8 19 -17 38 -17 12 -35 19 -40 16 -6 -4 -9 -2 -8 4 2 5 -6 16 -17 25 -20
15 -19 16 18 90 78 152 158 210 305 222 l82 7 46 141 c228 708 338 1659 304
2634 -34 972 -177 1717 -455 2366 -210 491 -553 965 -900 1246 -44 35 -83 69
-87 75 -4 5 -23 57 -42 115 -177 529 -358 1066 -427 1260 -45 129 -137 399
-205 600 -67 201 -123 362 -123 359z m-642 -3448 c279 -82 502 -303 656 -650
25 -56 45 -105 45 -108 0 -4 -30 22 -67 59 -254 249 -557 271 -836 60 l-64
-49 -73 45 c-204 124 -446 185 -637 162 -47 -6 -91 -14 -96 -17 -18 -11 1 27
51 101 61 93 190 226 276 287 75 53 195 104 296 125 101 21 355 12 449 -15z
m-208 -1518 c51 -66 128 -129 219 -181 74 -42 262 -109 332 -118 45 -6 47 -8
72 -63 36 -81 67 -198 83 -316 9 -67 10 -284 1 -365 -15 -138 -82 -309 -164
-421 -51 -70 -165 -172 -229 -205 l-56 -29 6 -43 c4 -24 8 -51 9 -60 2 -10 7
-39 10 -65 4 -27 9 -58 12 -70 2 -12 6 -39 9 -62 3 -22 15 -94 25 -160 19
-117 46 -339 51 -422 2 -23 -3 -48 -10 -57 -7 -9 -11 -16 -8 -16 4 0 -42 -50
-101 -111 -59 -62 -106 -116 -104 -121 1 -5 -2 -7 -7 -4 -16 10 -100 -73 -96
-94 2 -11 0 -22 -5 -25 -5 -3 -7 4 -5 15 2 11 2 20 -1 20 -14 0 -83 -64 -77
-73 13 -22 -31 12 -111 85 -67 62 -86 74 -97 65 -10 -10 -10 -8 1 6 12 16 9
22 -25 57 -21 22 -43 36 -48 33 -6 -3 -7 -1 -3 6 6 9 -22 52 -76 116 -6 6 -12
4 -18 -5 -7 -12 -9 -10 -7 7 0 12 5 19 9 17 4 -3 0 8 -9 25 -10 16 -22 27 -27
24 -5 -3 -6 -1 -3 4 4 6 -2 31 -13 56 l-20 46 20 318 c11 175 22 360 26 411
l6 92 -67 72 c-134 141 -236 332 -280 520 -21 92 -23 121 -20 278 5 198 6 213
45 365 44 173 34 161 134 169 268 22 435 143 505 368 l24 77 23 -55 c12 -30
42 -80 65 -111z m-474 -2678 c0 -8 -4 -12 -9 -9 -5 3 -6 10 -3 15 9 13 12 11
12 -6z m204 -187 c-10 -11 -11 -9 -5 7 7 18 6 19 -12 5 -17 -14 -18 -13 -7 1
7 9 11 18 9 21 -1 3 4 -1 13 -8 12 -11 13 -16 2 -26z m509 38 c0 -3 -4 -8 -10
-11 -5 -3 -10 -1 -10 4 0 6 5 11 10 11 6 0 10 -2 10 -4z m-446 -121 c-4 -8
-11 -15 -16 -15 -6 0 -5 6 2 15 7 8 14 15 16 15 2 0 1 -7 -2 -15z m-300 -303
c3 -5 -1 -9 -9 -9 -8 0 -12 4 -9 9 3 4 7 8 9 8 2 0 6 -4 9 -8z m-1834 -586 c0
-2 -7 -7 -16 -10 -8 -3 -12 -2 -9 4 6 10 25 14 25 6z m-53 -21 c0 -8 -4 -12
-9 -9 -5 3 -6 10 -3 15 9 13 12 11 12 -6z m-104 -96 c-8 -8 -13 -7 -18 2 -5 8
-4 10 3 5 7 -4 12 -2 12 5 0 7 3 9 7 6 4 -4 2 -12 -4 -18z m57 -65 c0 -8 -19
-13 -24 -6 -3 5 1 9 9 9 8 0 15 -2 15 -3z m-190 -8 c0 -2 -7 -7 -16 -10 -8 -3
-12 -2 -9 4 6 10 25 14 25 6z m2064 -12 c3 -8 2 -12 -4 -9 -6 3 -10 10 -10 16
0 14 7 11 14 -7z m-1954 -30 c0 -8 -19 -13 -24 -6 -3 5 1 9 9 9 8 0 15 -2 15
-3z m-190 -20 c0 -8 -19 -13 -24 -6 -3 5 1 9 9 9 8 0 15 -2 15 -3z m4960 -4
c0 -5 -7 -7 -15 -4 -8 4 -15 8 -15 10 0 2 7 4 15 4 8 0 15 -4 15 -10z m-20
-14 c0 -2 -8 -10 -17 -17 -16 -13 -17 -12 -4 4 13 16 21 21 21 13z m-5047 -49
c3 -8 -1 -14 -8 -14 -7 0 -11 6 -8 14 3 7 6 13 8 13 2 0 5 -6 8 -13z m232 4
c3 -5 2 -12 -3 -15 -5 -3 -9 1 -9 9 0 17 3 19 12 6z m4812 -23 c2 -17 0 -19
-7 -8 -5 8 -6 18 -4 22 8 12 10 10 11 -14z m112 -17 c-2 -6 -10 2 -17 17 -11
25 -11 25 4 10 9 -9 15 -21 13 -27z m-2692 -27 c-3 -3 -12 -4 -19 -1 -8 3 -5
6 6 6 11 1 17 -2 13 -5z m2653 0 c0 -8 -19 -13 -24 -6 -3 5 1 9 9 9 8 0 15 -2
15 -3z m-4983 -19 c0 -8 -4 -12 -9 -9 -5 3 -6 10 -3 15 9 13 12 11 12 -6z
m2376 8 c-7 -2 -19 -2 -25 0 -7 3 -2 5 12 5 14 0 19 -2 13 -5z m444 -9 c-3 -3
-12 -4 -19 -1 -8 3 -5 6 6 6 11 1 17 -2 13 -5z m40 -10 c-3 -3 -12 -4 -19 -1
-8 3 -5 6 6 6 11 1 17 -2 13 -5z m116 -1 c-7 -2 -19 -2 -25 0 -7 3 -2 5 12 5
14 0 19 -2 13 -5z m-503 -7 c0 -3 -4 -8 -10 -11 -5 -3 -10 -1 -10 4 0 6 5 11
10 11 6 0 10 -2 10 -4z m2655 -5 c-9 -8 -36 -10 -30 -2 2 4 11 8 20 8 8 0 13
-3 10 -6z m-2748 -27 c-3 -3 -12 -4 -19 -1 -8 3 -5 6 6 6 11 1 17 -2 13 -5z
m-64 -11 c-13 -2 -23 -7 -23 -11 0 -6 -53 -7 -125 -1 -26 2 91 14 150 16 16 0
15 -1 -2 -4z m567 -3 c0 -5 -2 -10 -4 -10 -3 0 -8 5 -11 10 -3 6 -1 10 4 10 6
0 11 -4 11 -10z m2350 -24 c0 -6 -5 -4 -10 4 -5 8 -10 11 -10 7 0 -5 -5 -5
-10 -2 -6 4 -8 11 -4 16 7 12 34 -8 34 -25z m-2290 4 c0 -5 -7 -7 -15 -4 -8 4
-15 8 -15 10 0 2 7 4 15 4 8 0 15 -4 15 -10z m100 -20 c13 -9 13 -10 0 -9 -8
0 -24 4 -35 9 l-20 9 20 0 c11 0 27 -4 35 -9z m108 -7 c-15 -2 -42 -2 -60 0
-18 2 -6 4 27 4 33 0 48 -2 33 -4z m-1064 -22 c3 -5 -2 -15 -12 -22 -15 -12
-16 -12 -5 2 7 9 10 19 6 22 -3 4 -4 7 0 7 3 0 8 -4 11 -9z m3033 -44 c-1 -7
4 -11 11 -9 8 1 11 -2 7 -8 -8 -13 -22 -5 -35 20 -8 16 -8 18 4 14 9 -3 14
-11 13 -17z m238 -6 c3 -5 2 -12 -3 -15 -5 -3 -9 1 -9 9 0 17 3 19 12 6z
m-112 -46 c-3 -9 -8 -14 -10 -11 -3 3 -2 9 2 15 9 16 15 13 8 -4z m162 -104
c3 -5 2 -12 -3 -15 -5 -3 -9 1 -9 9 0 17 3 19 12 6z m-29 -23 c4 -7 4 -10 -1
-6 -4 4 -14 3 -21 -3 -8 -7 -14 -6 -20 2 -4 7 -3 9 4 5 6 -3 13 -2 17 4 8 13
12 13 21 -2z m-3181 -1238 c3 -5 1 -10 -4 -10 -6 0 -11 5 -11 10 0 6 2 10 4
10 3 0 8 -4 11 -10z m1019 -8 c3 -5 -1 -9 -9 -9 -8 0 -12 4 -9 9 3 4 7 8 9 8
2 0 6 -4 9 -8z"/>
<path d="M25476 18551 c-63 -69 -40 -241 32 -241 36 0 57 23 72 79 30 114 -44
229 -104 162z"/>
<path d="M26045 18526 c-47 -47 -55 -145 -17 -211 62 -106 158 44 113 178 -20
59 -57 72 -96 33z"/>
<path d="M25715 17851 c-95 -25 -198 -92 -193 -124 5 -33 30 -31 87 7 132 89
264 86 370 -10 27 -24 58 -44 69 -44 65 0 -2 91 -104 141 -68 34 -168 47 -229
30z"/>
<path d="M30705 22863 c-359 -23 -751 -121 -1057 -265 l-106 -50 -17 -89 c-29
-159 -45 -300 -58 -514 -10 -184 -13 -201 -18 -135 -15 177 -5 586 16 678 5
20 -3 17 -77 -29 -255 -157 -465 -347 -646 -583 l-76 -99 12 -93 c7 -51 38
-197 70 -323 56 -223 64 -273 27 -174 -42 115 -136 310 -179 374 l-35 52 -68
-139 c-91 -187 -117 -252 -173 -429 -25 -81 -26 -92 -13 -107 14 -16 20 -3 68
140 53 156 105 284 162 396 l30 59 36 -64 c69 -124 180 -397 288 -711 31 -90
52 -118 64 -85 5 11 -15 94 -168 697 -30 118 -60 254 -67 302 -15 101 -22 85
99 235 94 117 276 295 386 379 97 73 205 147 210 142 1 -1 -1 -48 -6 -103 -24
-298 5 -714 67 -960 35 -136 34 -135 54 -135 24 0 24 -14 -2 155 -28 186 -31
568 -4 784 26 216 51 352 67 362 8 5 60 29 117 54 326 143 698 229 1050 242
l162 6 0 -219 c0 -120 -5 -317 -10 -437 l-10 -219 -32 -26 c-122 -105 -413
-298 -638 -424 -116 -65 -113 -66 57 -27 117 26 243 77 430 174 191 98 173
117 142 -150 -23 -205 -66 -469 -103 -636 -25 -113 -26 -115 -76 -161 -132
-123 -431 -297 -815 -473 l-80 -36 85 5 c166 11 411 88 678 212 57 26 92 38
92 30 0 -7 -13 -50 -29 -97 -114 -336 -283 -659 -488 -933 l-93 -125 -83 -25
c-186 -56 -537 -135 -615 -137 -27 -1 -16 -5 38 -15 82 -14 340 -17 435 -5 33
5 62 6 65 4 7 -6 -254 -260 -392 -381 -91 -80 -115 -107 -111 -122 5 -18 10
-16 56 23 162 135 514 474 538 519 8 15 5 16 -22 8 -49 -14 -303 -34 -325 -26
-14 6 3 13 66 27 47 10 151 37 232 60 l147 42 79 106 c208 278 359 555 480
883 52 140 94 270 88 275 -2 2 -46 -17 -97 -42 -201 -99 -527 -223 -550 -209
-4 2 56 37 134 78 315 163 566 338 580 403 55 263 71 343 92 484 26 173 68
559 62 566 -2 2 -44 -20 -93 -48 -158 -92 -424 -216 -424 -199 0 4 48 38 106
74 134 84 315 212 377 268 l47 43 10 235 c5 129 10 337 10 463 l0 227 -102 -2
c-57 -1 -125 -3 -153 -5z"/>
<path d="M30443 22537 c-4 -7 -73 -142 -154 -302 -80 -159 -227 -443 -326
-630 -189 -357 -277 -527 -634 -1230 -274 -541 -289 -573 -277 -604 7 -21 29
17 167 295 176 356 587 1153 825 1604 177 334 436 844 436 858 0 16 -29 22
-37 9z"/>
<path d="M38036 22188 c-2 -7 -7 -43 -10 -81 -15 -190 -120 -283 -342 -303
-63 -6 -74 -9 -74 -25 0 -16 8 -19 56 -19 219 0 347 -108 361 -305 3 -44 11
-83 16 -87 23 -14 37 5 37 51 0 68 26 156 61 207 55 81 141 121 277 131 67 5
82 9 82 22 0 14 -18 19 -101 28 -217 24 -300 108 -318 318 -5 56 -10 70 -24
73 -9 2 -19 -2 -21 -10z"/>
<path d="M18259 21823 c-1024 -1045 -2303 -2795 -3214 -4397 -78 -138 -184
-330 -235 -426 -133 -250 -160 -300 -166 -300 -2 0 -35 45 -72 101 -115 174
-122 184 -135 199 -7 8 -32 44 -56 80 -24 36 -76 108 -114 160 -39 52 -83 113
-99 135 -30 41 -381 512 -396 530 -4 6 -19 26 -32 45 -14 19 -36 49 -50 66
-27 34 -46 60 -70 94 -12 17 -319 428 -347 465 -5 6 -35 46 -68 90 -33 43 -65
86 -72 95 -28 36 -113 146 -121 155 -4 6 -28 37 -52 70 -24 33 -50 66 -58 74
-7 8 -21 26 -30 40 -20 30 -24 36 -55 76 -37 46 -239 316 -265 354 -13 18 -29
39 -35 47 -7 7 -23 29 -37 49 -14 20 -48 66 -75 103 -28 37 -70 97 -95 134
-133 199 6 -69 188 -362 71 -114 255 -395 277 -421 7 -9 40 -57 74 -105 60
-88 212 -300 228 -319 5 -5 36 -46 68 -90 33 -44 62 -82 65 -85 3 -3 18 -23
35 -45 16 -22 32 -42 35 -45 3 -3 28 -34 55 -70 60 -77 77 -99 90 -114 6 -6
23 -29 40 -51 16 -22 37 -49 46 -60 69 -82 262 -325 378 -477 36 -45 67 -85
71 -88 4 -3 35 -43 70 -90 36 -47 67 -87 70 -90 4 -3 33 -41 65 -85 32 -44 64
-85 69 -91 6 -6 18 -22 26 -34 8 -12 35 -48 60 -80 39 -51 94 -126 137 -188 7
-9 38 -51 69 -92 30 -41 62 -87 70 -103 13 -23 15 -134 14 -737 l0 -709 107 0
c60 1 906 0 1881 0 l1772 -1 0 -975 0 -975 915 0 915 0 0 975 0 975 465 0 465
0 0 763 0 764 -292 6 c-161 4 -371 7 -465 7 l-173 0 0 2615 0 2615 -883 0
-884 0 -174 -177z m109 -3590 l-3 -1468 -980 3 c-539 2 -981 5 -983 6 -5 6
170 351 268 526 234 419 463 762 918 1375 391 526 768 1024 775 1025 4 0 6
-660 5 -1467z"/>
<path d="M33962 21813 c-749 -783 -1513 -1755 -2272 -2888 -495 -740 -1015
-1617 -1314 -2212 l-56 -113 0 -678 0 -679 407 -6 c223 -4 1069 -7 1880 -7
l1473 0 0 -975 0 -975 920 0 920 0 0 975 0 975 465 0 465 0 0 771 0 770 -192
-1 c-106 -1 -316 -1 -465 -1 l-273 1 0 2615 0 2615 -889 0 -889 0 -180 -187z
m118 -3584 l0 -1472 -985 4 c-650 3 -985 7 -983 14 2 6 49 100 105 210 242
476 513 909 898 1435 181 248 955 1280 960 1280 3 0 5 -662 5 -1471z"/>
<path d="M44020 20143 c-355 -124 -646 -226 -648 -227 -4 -4 178 -470 187
-479 7 -7 34 12 122 86 14 12 64 53 110 91 l84 69 -127 65 c-71 36 -128 68
-128 71 0 4 73 43 163 88 672 340 918 468 887 462 -3 0 -295 -102 -650 -226z"/>
<path d="M38620 15533 c-222 -105 -575 -288 -671 -348 -9 -5 -35 -20 -58 -33
-46 -25 -308 -184 -357 -217 -17 -11 -56 -36 -87 -55 -54 -34 -56 -37 -57 -78
l0 -44 48 27 c26 15 54 33 62 40 8 6 38 24 65 40 28 15 73 43 100 60 118 77
652 406 827 511 105 62 193 116 196 119 12 11 -16 2 -68 -22z"/>
<path d="M37065 14630 c-200 -131 -196 -128 -384 -247 -90 -56 -166 -103 -170
-103 -17 -1 -51 -41 -51 -59 0 -12 2 -21 4 -21 8 0 464 274 846 508 l35 22
-65 -1 -65 0 -150 -99z"/>
<path d="M28154 11996 c-151 -35 -238 -116 -285 -267 -18 -57 -19 -102 -19
-705 l0 -644 125 0 125 0 0 445 0 445 200 0 200 0 0 105 0 105 -201 0 -201 0
4 88 c7 132 44 192 137 219 61 17 151 13 220 -12 46 -16 40 -24 66 90 8 39 18
77 21 86 12 42 -266 73 -392 45z"/>
<path d="M33235 12000 c-22 -4 -73 -13 -112 -20 l-73 -12 0 -259 c0 -159 -4
-259 -10 -259 -5 0 -33 10 -62 21 -67 27 -205 36 -290 19 -135 -26 -249 -113
-307 -233 -88 -180 -93 -440 -12 -614 61 -129 195 -233 347 -269 93 -22 328
-14 468 16 55 12 103 23 108 26 4 3 8 363 8 800 0 629 -3 794 -12 793 -7 -1
-31 -5 -53 -9z m-275 -735 c24 -9 55 -22 67 -31 l23 -14 0 -315 0 -314 -37 -7
c-69 -14 -215 -8 -256 10 -144 64 -214 244 -176 451 12 66 56 160 88 189 59
54 188 68 291 31z"/>
<path d="M26655 11800 c-22 -4 -73 -13 -112 -20 l-73 -12 0 -533 c0 -316 4
-554 10 -585 39 -204 184 -302 428 -288 104 6 242 44 242 66 0 8 -8 52 -17 99
-16 76 -20 84 -38 80 -11 -3 -54 -13 -95 -22 -128 -28 -209 -4 -252 77 -22 41
-23 53 -26 326 l-3 282 195 0 196 0 0 105 0 105 -195 0 -195 0 0 165 c0 126
-3 165 -12 164 -7 -1 -31 -5 -53 -9z"/>
<path d="M20215 11500 c-44 -4 -114 -14 -156 -24 l-75 -16 14 -98 c8 -53 16
-99 18 -100 1 -2 35 3 76 12 221 46 354 21 405 -77 9 -17 18 -62 21 -98 l5
-67 -44 9 c-63 12 -235 11 -304 -2 -124 -23 -216 -83 -263 -173 -24 -46 -27
-61 -27 -156 0 -86 4 -113 21 -151 67 -144 241 -211 509 -195 101 6 277 29
333 43 l24 6 -4 391 c-4 369 -5 395 -26 457 -12 36 -37 86 -56 111 -78 101
-249 148 -471 128z m283 -637 c22 -5 22 -8 22 -148 l0 -144 -45 -7 c-82 -12
-227 0 -264 21 -55 32 -75 68 -75 130 0 85 50 137 151 155 46 8 164 5 211 -7z"/>
<path d="M22690 11500 c-211 -26 -372 -179 -425 -401 -19 -81 -19 -253 -1
-341 39 -181 162 -316 343 -374 112 -36 354 -28 497 17 l62 19 -14 97 c-8 54
-16 100 -18 101 -1 2 -42 -6 -91 -19 -115 -29 -264 -31 -343 -5 -76 26 -153
104 -174 176 -29 99 -65 89 347 92 l362 3 -1 110 c-5 329 -150 507 -429 528
-33 2 -85 1 -115 -3z m185 -234 c52 -31 105 -125 105 -188 l0 -38 -235 0
c-129 0 -235 2 -235 4 0 2 9 34 21 71 25 81 91 155 155 173 59 17 138 7 189
-22z"/>
<path d="M25615 11500 c-216 -24 -371 -165 -432 -392 -23 -85 -23 -270 1 -357
37 -136 112 -243 220 -313 86 -56 168 -78 285 -78 161 0 280 48 379 154 103
111 145 231 145 416 1 126 -15 202 -59 295 -93 198 -298 302 -539 275z m192
-239 c75 -38 126 -128 143 -255 38 -271 -111 -472 -317 -427 -168 38 -254 270
-188 506 17 61 65 138 99 161 75 49 185 55 263 15z"/>
<path d="M29050 11500 c-83 -10 -178 -49 -245 -100 -199 -153 -262 -496 -140
-755 88 -185 251 -285 464 -285 162 0 280 48 380 156 103 110 145 229 145 414
0 126 -16 203 -60 295 -94 200 -298 303 -544 275z m197 -239 c137 -69 194
-340 112 -531 -31 -73 -102 -135 -172 -151 -206 -45 -355 156 -317 427 21 153
81 239 190 275 42 14 142 3 187 -20z"/>
<path d="M18965 11493 c-16 -2 -81 -13 -142 -24 l-113 -21 0 -724 0 -724 125
0 125 0 0 209 0 209 68 -23 c296 -104 565 39 642 341 25 97 27 281 5 369 -67
263 -260 397 -564 394 -64 -1 -129 -4 -146 -6z m289 -229 c64 -22 118 -77 147
-150 21 -52 24 -75 24 -195 0 -136 0 -136 -35 -205 -28 -55 -45 -74 -84 -99
-46 -28 -56 -30 -145 -30 -85 0 -102 3 -148 28 l-53 27 0 315 0 315 23 4 c12
3 31 7 42 10 39 10 181 -3 229 -20z"/>
<path d="M21440 11494 c-64 -13 -154 -49 -208 -83 -140 -91 -212 -245 -212
-456 0 -256 105 -422 310 -491 86 -29 245 -25 333 8 l67 26 0 -51 c0 -74 -20
-126 -65 -173 -54 -56 -101 -69 -245 -67 -83 1 -137 7 -195 23 -44 12 -87 23
-94 23 -18 2 -59 -189 -44 -204 5 -5 52 -19 104 -31 115 -26 360 -32 449 -9
151 37 266 131 311 253 24 63 24 64 27 624 l3 562 -113 22 c-109 21 -367 36
-428 24z m259 -210 l31 -6 0 -288 0 -288 -52 -23 c-78 -34 -192 -38 -252 -9
-100 48 -146 138 -146 285 0 150 53 259 149 308 48 24 66 27 147 27 50 0 106
-3 123 -6z"/>
<path d="M24260 11494 c-19 -3 -86 -14 -147 -25 l-113 -21 0 -534 0 -534 125
0 125 0 0 445 0 444 38 8 c20 4 78 7 127 8 105 0 156 -19 192 -74 43 -65 46
-91 50 -468 l5 -363 124 0 125 0 -3 398 c-3 384 -4 399 -26 462 -43 120 -110
189 -228 232 -49 17 -85 22 -209 24 -82 1 -166 0 -185 -2z"/>
<path d="M31380 11490 c-77 -11 -221 -39 -232 -46 -4 -3 -8 -243 -8 -535 l0
-529 130 0 130 0 0 444 c0 415 1 445 18 450 9 2 51 8 93 11 107 10 180 -7 224
-51 63 -62 68 -96 73 -496 l4 -358 125 0 124 0 -3 393 c-4 371 -5 396 -26 457
-42 128 -109 199 -230 242 -46 17 -86 21 -207 24 -82 1 -179 -1 -215 -6z"/>
<path d="M29912 11088 c4 -375 5 -396 26 -458 40 -119 118 -197 240 -243 51
-20 75 -22 232 -20 140 1 198 6 290 25 l115 23 3 533 2 532 -125 0 -125 0 0
-444 0 -444 -22 -6 c-13 -3 -70 -6 -128 -6 -120 0 -166 18 -207 79 -43 64 -46
91 -50 464 l-5 357 -124 0 -125 0 3 -392z"/>
</g>
</svg>
